<?xml version="1.0" standalone="no"?>
<!DOCTYPE svg PUBLIC "-//W3C//DTD SVG 20010904//EN"
 "http://www.w3.org/TR/2001/REC-SVG-20010904/DTD/svg10.dtd">
<svg version="1.0" xmlns="http://www.w3.org/2000/svg"
 width="881.000000pt" height="881.000000pt" viewBox="0 0 881.000000 881.000000"
 preserveAspectRatio="xMidYMid meet">
<metadata>
Created by potrace 1.14, written by Peter Selinger 2001-2017
</metadata>
<g transform="translate(0.000000,881.000000) scale(0.100000,-0.100000)"
fill="#000000" stroke="none">
<path d="M1198 8645 c-266 -42 -546 -196 -716 -395 -146 -171 -222 -322 -279
-555 -16 -65 -18 -281 -21 -3225 -2 -2120 0 -3185 7 -3245 64 -557 486 -986
1046 -1064 53 -8 1040 -11 3203 -11 3398 0 3217 -3 3400 55 122 38 206 79 315
151 225 150 386 360 471 614 71 212 66 -44 66 3430 0 3362 2 3218 -48 3390
-131 447 -518 786 -979 855 -141 21 -6329 21 -6465 0z m4199 -566 c24 -12 67
-44 95 -71 29 -28 70 -58 92 -68 63 -28 225 -211 274 -310 24 -50 27 -65 26
-155 -1 -55 -7 -152 -13 -215 -24 -235 -107 -770 -146 -940 -29 -124 -60 -289
-86 -455 -10 -66 -30 -177 -44 -248 -14 -70 -25 -137 -25 -150 0 -13 -5 -28
-10 -33 -6 -6 -15 -57 -20 -115 -13 -137 -46 -376 -70 -515 -11 -62 -20 -126
-20 -142 0 -17 -4 -34 -10 -37 -5 -3 -10 -32 -10 -64 0 -33 -11 -102 -25 -155
-14 -53 -25 -112 -25 -131 0 -18 -4 -37 -10 -40 -5 -3 -9 -29 -8 -58 2 -70
-13 -206 -23 -213 -5 -3 -9 -25 -9 -48 0 -24 -7 -56 -14 -72 -13 -24 -13 -31
2 -56 15 -26 15 -41 0 -210 -20 -226 -19 -214 -18 -433 0 -158 12 -353 26
-453 5 -32 18 -49 65 -85 28 -21 57 -16 100 15 16 12 32 19 35 15 14 -14 -7
-37 -56 -62 -27 -14 -50 -29 -50 -34 0 -11 82 -7 99 4 8 5 11 -2 9 -21 -3 -27
-1 -28 34 -26 28 3 39 -1 47 -17 12 -21 -1 -71 -18 -71 -5 0 -24 -15 -42 -32
-31 -31 -36 -33 -108 -33 -88 0 -132 18 -226 93 -51 40 -56 48 -51 74 4 23 2
28 -13 28 -26 0 -117 73 -136 109 -8 16 -37 55 -64 86 -57 65 -121 187 -129
248 -3 23 -11 52 -19 64 -20 30 -42 325 -25 331 17 5 15 74 -3 98 -19 25 -19
54 2 69 19 14 21 74 3 85 -8 5 -9 16 -4 31 4 13 7 30 6 36 -2 7 2 31 8 53 9
33 8 44 -6 65 -11 18 -14 36 -10 62 4 21 7 54 6 74 0 21 6 42 15 49 19 16 19
47 0 67 -12 11 -14 27 -9 66 8 68 26 135 31 120 8 -22 19 -14 32 25 8 20 18
42 22 48 5 6 11 83 13 170 3 93 10 184 19 219 8 33 18 82 22 109 6 44 5 48 -9
37 -17 -14 -41 -115 -31 -131 4 -6 -5 -25 -20 -42 -28 -34 -124 -227 -145
-293 -7 -22 -24 -50 -36 -62 -13 -12 -24 -33 -24 -47 0 -37 -48 -182 -85 -256
-17 -36 -42 -92 -55 -125 -39 -99 -88 -165 -122 -165 -25 0 -23 -16 3 -23 27
-7 23 -22 -51 -172 -72 -145 -120 -210 -185 -252 -28 -18 -63 -42 -80 -55 -25
-19 -41 -23 -105 -23 -103 0 -150 26 -339 188 -231 198 -373 355 -427 472 -67
146 -160 448 -189 619 -18 104 -19 129 -5 121 6 -3 10 -19 10 -36 0 -16 5 -29
10 -29 23 0 1 120 -27 152 -14 16 -14 19 6 35 27 23 41 97 41 214 0 54 4 90
11 95 8 4 10 34 6 88 -3 63 -1 87 12 109 14 24 14 29 1 37 -12 7 -11 13 10 34
19 21 20 26 7 26 -9 0 -19 5 -23 11 -4 7 0 9 13 5 18 -6 21 -1 27 35 5 32 3
44 -10 53 -13 10 -14 17 -6 32 5 10 13 71 17 134 4 63 14 153 23 200 8 47 15
102 16 123 0 20 4 37 8 37 4 0 8 13 8 29 0 16 8 39 19 52 17 22 17 24 2 36
-15 12 -14 14 4 28 17 13 20 29 22 95 3 130 40 303 67 313 21 8 28 78 10 99
-19 20 -11 68 11 68 23 0 27 16 29 148 3 140 19 225 46 252 13 13 15 22 7 35
-17 31 0 211 32 339 37 143 53 320 46 496 -4 101 -2 120 7 98 10 -25 17 -28
57 -28 63 0 115 -16 150 -45 16 -14 35 -25 42 -25 15 0 88 -77 170 -178 l59
-73 0 -97 c0 -133 -20 -308 -79 -702 -69 -454 -99 -628 -126 -729 -23 -87 -65
-316 -68 -381 -2 -19 -5 -40 -9 -45 -4 -6 -12 -58 -18 -115 -6 -58 -18 -136
-26 -175 -20 -91 -21 -94 -38 -270 -8 -82 -20 -184 -25 -225 -12 -85 -35 -345
-33 -375 1 -11 5 -105 11 -210 9 -183 31 -334 68 -465 22 -80 31 -94 49 -79
10 8 14 8 14 0 0 -25 22 -8 56 47 20 31 44 61 52 66 43 25 176 214 187 267 4
15 15 31 26 34 22 7 49 54 49 85 0 25 28 81 47 96 16 11 19 43 8 86 -10 38 1
64 19 48 19 -15 31 8 40 74 3 28 15 59 25 70 11 12 21 39 23 61 2 33 7 41 26
43 19 3 23 8 18 27 -4 15 -1 25 8 28 13 5 42 60 111 214 18 40 28 77 27 103
-2 32 4 47 23 66 14 14 25 35 25 47 0 12 11 46 25 75 14 30 25 71 25 93 0 33
4 40 25 45 14 3 25 13 25 21 0 9 13 39 29 67 26 45 46 104 67 201 6 27 7 28
15 10 7 -14 8 -10 4 17 -5 30 -1 42 23 70 18 20 32 50 36 78 4 24 15 58 26 75
18 29 27 51 71 175 10 30 24 64 30 76 6 11 9 24 8 30 -3 9 9 86 17 117 3 9 11
17 18 17 7 0 19 33 30 78 9 42 35 116 57 163 21 47 39 92 39 100 0 9 11 30 25
49 14 19 25 44 25 57 0 13 11 46 25 73 14 27 25 60 25 72 0 13 11 43 25 67 14
24 32 67 41 96 8 29 21 59 29 65 11 9 13 29 8 88 -6 87 14 189 47 234 13 18
20 44 20 75 1 26 4 66 9 88 4 22 6 46 3 53 -6 19 -22 3 -22 -23 0 -26 -15 -42
-22 -22 -3 6 -2 38 1 69 5 39 1 84 -11 140 -9 46 -17 89 -18 96 0 21 117 15
167 -9z m-247 -719 c0 -5 -4 -10 -10 -10 -5 0 -10 5 -10 10 0 6 5 10 10 10 6
0 10 -4 10 -10z m-90 -290 c-17 -32 -22 -18 -8 21 8 22 13 28 16 17 2 -9 -2
-27 -8 -38z m-86 -252 c-15 -51 -27 -72 -31 -61 -6 17 16 83 28 83 6 0 7 -10
3 -22z m-91 -264 c-21 -56 -39 -91 -41 -80 -4 18 11 65 52 161 37 89 28 21
-11 -81z m-63 -174 c0 -5 -4 -10 -10 -10 -5 0 -10 5 -10 10 0 6 5 10 10 10 6
0 10 -4 10 -10z m-80 -200 c-21 -57 -40 -85 -40 -59 0 17 52 130 58 125 2 -3
-6 -33 -18 -66z m-75 -200 c-10 -33 -25 -66 -33 -73 -13 -10 -14 -8 -8 11 3
12 9 32 12 44 13 43 35 90 41 84 3 -3 -2 -33 -12 -66z m-55 -129 c0 -11 -4
-23 -10 -26 -6 -4 -10 5 -10 19 0 14 5 26 10 26 6 0 10 -9 10 -19z m-40 -100
c0 -11 -39 -59 -40 -49 0 14 23 58 32 58 4 0 8 -4 8 -9z m-80 -171 c0 -5 -4
-10 -10 -10 -5 0 -10 5 -10 10 0 6 5 10 10 10 6 0 10 -4 10 -10z m-41 -126
c-6 -16 -13 -24 -16 -17 -5 13 16 58 23 50 3 -2 -1 -17 -7 -33z m-69 -153 c0
-6 -4 -13 -10 -16 -5 -3 -10 1 -10 9 0 9 5 16 10 16 6 0 10 -4 10 -9z m-225
-546 c-8 -21 -18 -35 -22 -31 -4 4 1 22 12 41 10 20 20 33 22 31 2 -2 -3 -21
-12 -41z m-38 -100 c-4 -8 -11 -15 -17 -15 -7 0 -7 6 0 21 13 23 26 19 17 -6z
m744 -28 c-8 -8 -11 -7 -11 4 0 20 13 34 18 19 3 -7 -1 -17 -7 -23z m-812
-159 c-11 -19 -14 -20 -17 -6 -2 9 2 27 9 40 11 19 14 20 17 6 2 -9 -2 -27 -9
-40z m811 12 c0 -10 -4 -22 -10 -25 -6 -4 -10 7 -10 25 0 18 4 29 10 25 6 -3
10 -15 10 -25z m-885 -176 c-24 -37 -29 -23 -9 22 13 29 18 34 21 21 3 -10 -3
-29 -12 -43z m-88 -186 c-3 -8 -6 -5 -6 6 -1 11 2 17 5 13 3 -3 4 -12 1 -19z
m-1707 -2771 c0 -284 1 -294 23 -337 42 -84 139 -116 214 -70 65 39 67 52 73
390 l5 305 113 3 113 3 -3 -328 c-3 -318 -4 -330 -26 -378 -51 -111 -108 -165
-219 -205 -88 -32 -224 -27 -303 12 -118 58 -189 153 -210 283 -11 67 -14 598
-3 608 3 4 55 7 115 7 l108 0 0 -293z m1095 16 l170 -262 5 262 5 262 105 0
105 0 0 -455 0 -455 -104 0 -105 0 -165 256 -166 256 -3 -259 -2 -258 -110 0
-110 0 0 453 c0 250 3 457 7 461 4 4 50 5 102 4 l95 -3 171 -262z m793 -196
l2 -458 -112 3 -113 3 -3 444 c-2 325 1 447 9 458 9 10 36 13 113 11 l101 -3
3 -458z m410 106 l2 -353 173 -2 172 -3 3 -102 3 -103 -291 0 -290 0 0 453 c0
250 3 457 7 461 4 3 54 5 112 4 l106 -3 3 -352z m751 343 c8 -9 10 -138 9
-457 l-3 -444 -112 -3 -113 -3 0 454 c0 250 3 457 7 460 3 4 50 7 103 7 70 0
101 -4 109 -14z m829 -88 l3 -98 -211 0 -210 0 0 -90 0 -90 123 0 c67 0 128
-4 135 -8 9 -6 12 -34 10 -103 l-3 -94 -132 -3 -133 -3 0 -165 0 -165 -112 3
-113 3 -3 449 c-2 353 0 451 10 458 7 4 153 7 323 5 l310 -2 3 -97z m830 5
l-3 -98 -222 -3 -223 -2 0 -75 0 -74 143 -3 142 -3 3 -94 c2 -69 -1 -97 -10
-103 -7 -4 -73 -8 -145 -8 l-133 0 0 -80 0 -80 225 0 226 0 -3 -97 -3 -98
-337 -3 -338 -2 0 460 0 460 340 0 341 0 -3 -97z"/>
<path d="M5261 7352 c-1 -7 6 -27 16 -45 15 -29 17 -30 23 -12 9 23 3 38 -11
30 -5 -4 -13 4 -18 17 -6 13 -10 17 -10 10z"/>
<path d="M5255 7200 c-7 -12 18 -24 37 -18 8 3 5 9 -9 16 -14 8 -24 9 -28 2z"/>
<path d="M5210 7025 c0 -3 9 -23 20 -45 11 -22 20 -50 20 -64 0 -14 5 -28 10
-31 14 -8 13 74 -1 114 -7 20 -18 31 -30 31 -10 0 -19 -2 -19 -5z"/>
<path d="M5153 6943 c-4 -11 3 -24 23 -40 37 -29 50 -30 30 -1 -9 12 -16 30
-16 40 0 23 -28 24 -37 1z"/>
<path d="M5235 6840 c3 -5 8 -10 11 -10 2 0 4 5 4 10 0 6 -5 10 -11 10 -5 0
-7 -4 -4 -10z"/>
<path d="M5105 6631 c-3 -5 -1 -12 5 -16 5 -3 10 1 10 9 0 18 -6 21 -15 7z"/>
<path d="M5155 6529 c-19 -35 -10 -54 11 -25 13 19 20 56 9 56 -2 0 -12 -14
-20 -31z"/>
<path d="M5044 6525 c-7 -17 4 -37 17 -30 12 8 12 45 -1 45 -6 0 -13 -7 -16
-15z"/>
<path d="M5100 6500 c0 -5 5 -10 10 -10 6 0 10 5 10 10 0 6 -4 10 -10 10 -5 0
-10 -4 -10 -10z"/>
<path d="M5005 6450 c-3 -5 -1 -10 4 -10 6 0 11 5 11 10 0 6 -2 10 -4 10 -3 0
-8 -4 -11 -10z"/>
<path d="M3327 6390 c-3 -14 -3 -28 2 -33 12 -12 20 14 11 37 -6 18 -7 18 -13
-4z"/>
<path d="M4965 6350 c-3 -5 -2 -10 4 -10 5 0 13 5 16 10 3 6 2 10 -4 10 -5 0
-13 -4 -16 -10z"/>
<path d="M3296 6304 c-4 -9 -4 -19 -2 -21 8 -8 26 8 26 23 0 19 -16 18 -24 -2z"/>
<path d="M5120 6296 c0 -9 5 -16 10 -16 6 0 10 4 10 9 0 6 -4 13 -10 16 -5 3
-10 -1 -10 -9z"/>
<path d="M4952 6278 c2 -12 8 -23 14 -25 7 -2 10 6 7 22 -6 30 -26 34 -21 3z"/>
<path d="M4910 6208 c0 -18 18 -34 28 -24 3 4 -2 14 -11 23 -16 16 -17 16 -17
1z"/>
<path d="M5193 6155 c-3 -9 -3 -18 0 -21 9 -9 27 6 27 22 0 19 -19 18 -27 -1z"/>
<path d="M4873 6105 c-25 -17 -57 -94 -50 -121 3 -15 6 -13 16 12 24 62 47 99
63 102 14 3 16 -3 11 -35 -3 -21 -11 -50 -18 -65 -9 -20 -10 -30 -3 -35 15 -8
48 34 41 53 -3 8 0 21 7 30 11 12 10 20 -7 41 -25 34 -33 37 -60 18z"/>
<path d="M4980 6095 c0 -9 9 -15 24 -15 30 0 42 15 20 24 -27 10 -44 7 -44 -9z"/>
<path d="M5060 6065 c0 -8 2 -15 4 -15 2 0 6 7 10 15 3 8 1 15 -4 15 -6 0 -10
-7 -10 -15z"/>
<path d="M3537 6044 c-14 -14 -7 -25 13 -22 12 2 21 8 21 13 0 12 -24 18 -34
9z"/>
<path d="M4981 6024 c0 -11 3 -14 6 -6 3 7 2 16 -1 19 -3 4 -6 -2 -5 -13z"/>
<path d="M3377 6023 c-4 -3 -7 -11 -7 -17 0 -6 5 -5 12 2 6 6 9 14 7 17 -3 3
-9 2 -12 -2z"/>
<path d="M5375 6000 c3 -5 8 -10 11 -10 2 0 4 5 4 10 0 6 -5 10 -11 10 -5 0
-7 -4 -4 -10z"/>
<path d="M5064 5985 c-8 -19 2 -45 16 -45 5 0 10 14 10 30 0 31 -16 41 -26 15z"/>
<path d="M4840 5945 c-10 -12 -10 -15 3 -15 19 0 31 16 18 24 -5 3 -14 -1 -21
-9z"/>
<path d="M5050 5895 c0 -8 5 -15 10 -15 6 0 10 7 10 15 0 8 -4 15 -10 15 -5 0
-10 -7 -10 -15z"/>
<path d="M3230 5885 c7 -9 15 -13 17 -11 7 7 -7 26 -19 26 -6 0 -6 -6 2 -15z"/>
<path d="M3401 5876 c-9 -10 -9 -16 -1 -21 17 -10 37 12 24 25 -8 8 -15 6 -23
-4z"/>
<path d="M4736 5855 c-3 -8 -1 -15 4 -15 6 0 10 7 10 15 0 8 -2 15 -4 15 -2 0
-6 -7 -10 -15z"/>
<path d="M5030 5846 c0 -15 18 -31 26 -23 7 7 -7 37 -17 37 -5 0 -9 -6 -9 -14z"/>
<path d="M4767 5826 c-3 -8 1 -20 9 -26 12 -10 14 -8 14 14 0 28 -14 35 -23
12z"/>
<path d="M5330 5785 c0 -8 5 -15 10 -15 6 0 10 7 10 15 0 8 -4 15 -10 15 -5 0
-10 -7 -10 -15z"/>
<path d="M4716 5774 c-3 -9 -6 -30 -6 -49 0 -18 -7 -49 -15 -68 -17 -41 -20
-101 -5 -92 6 3 10 20 10 36 0 22 6 32 22 38 21 7 23 15 24 74 1 45 -3 68 -12
71 -7 3 -15 -2 -18 -10z"/>
<path d="M5001 5748 c-1 -32 2 -38 20 -38 17 0 19 3 11 13 -6 7 -16 24 -21 38
-9 22 -10 21 -10 -13z"/>
<path d="M5306 5728 c-24 -34 -19 -53 18 -82 41 -31 50 -33 36 -6 -8 15 -6 21
10 30 11 6 18 16 14 21 -4 6 -15 2 -29 -11 -27 -25 -39 -13 -25 25 19 49 4 63
-24 23z"/>
<path d="M5440 5725 c0 -9 5 -15 11 -13 6 2 11 8 11 13 0 5 -5 11 -11 13 -6 2
-11 -4 -11 -13z"/>
<path d="M4845 5720 c-3 -5 1 -10 9 -10 9 0 16 5 16 10 0 6 -4 10 -9 10 -6 0
-13 -4 -16 -10z"/>
<path d="M4937 5704 c-8 -8 3 -34 14 -34 11 0 12 27 0 34 -4 3 -11 3 -14 0z"/>
<path d="M3494 5675 c-7 -17 2 -45 14 -45 20 0 43 26 36 43 -8 21 -43 22 -50
2z"/>
<path d="M5010 5678 c0 -18 18 -34 28 -24 3 4 -2 14 -11 23 -16 16 -17 16 -17
1z"/>
<path d="M4977 5626 c-6 -15 1 -26 15 -26 11 0 10 27 -1 34 -5 3 -11 0 -14 -8z"/>
<path d="M3180 5565 c0 -9 5 -15 11 -13 6 2 11 8 11 13 0 5 -5 11 -11 13 -6 2
-11 -4 -11 -13z"/>
<path d="M3509 5565 c-14 -22 -21 -75 -9 -75 6 0 13 6 16 14 7 19 1 74 -7 61z"/>
<path d="M4946 5559 c-3 -8 -2 -30 2 -49 l8 -35 12 34 c10 29 10 37 -2 50 -13
12 -16 13 -20 0z"/>
<path d="M5384 5549 c-10 -17 13 -36 27 -22 12 12 4 33 -11 33 -5 0 -12 -5
-16 -11z"/>
<path d="M4690 5521 c0 -6 4 -13 10 -16 6 -3 7 1 4 9 -7 18 -14 21 -14 7z"/>
<path d="M3160 5453 c0 -41 3 -54 10 -43 13 20 13 100 0 100 -6 0 -10 -26 -10
-57z"/>
<path d="M4770 5489 c0 -11 5 -17 10 -14 6 3 10 13 10 21 0 8 -4 14 -10 14 -5
0 -10 -9 -10 -21z"/>
<path d="M4610 5460 c-23 -44 -23 -81 -2 -88 9 -3 11 3 7 21 -5 19 -2 28 14
37 12 6 21 21 21 35 0 40 -18 38 -40 -5z"/>
<path d="M4870 5481 c0 -6 5 -13 10 -16 6 -3 10 1 10 9 0 9 -4 16 -10 16 -5 0
-10 -4 -10 -9z"/>
<path d="M4726 5472 c-3 -6 -1 -14 5 -17 15 -10 25 3 12 16 -7 7 -13 7 -17 1z"/>
<path d="M5367 5454 c-10 -10 -8 -86 2 -103 6 -9 10 2 13 35 5 49 -2 80 -15
68z"/>
<path d="M4914 5423 c-11 -12 -13 -18 -5 -21 19 -6 41 6 41 23 0 20 -14 19
-36 -2z"/>
<path d="M5246 5377 c3 -10 9 -15 12 -12 3 3 0 11 -7 18 -10 9 -11 8 -5 -6z"/>
<path d="M3316 5344 c-4 -14 -5 -29 -2 -31 3 -3 8 7 12 21 3 15 4 29 1 32 -2
3 -8 -7 -11 -22z"/>
<path d="M3452 5339 c2 -7 10 -15 17 -17 8 -3 12 1 9 9 -2 7 -10 15 -17 17 -8
3 -12 -1 -9 -9z"/>
<path d="M4855 5269 c-10 -45 -25 -87 -32 -95 -7 -7 -13 -20 -13 -30 0 -15 4
-14 25 6 l25 23 0 -33 c0 -18 3 -30 8 -26 4 4 7 33 7 63 0 56 20 87 27 41 3
-21 4 -20 20 12 17 35 14 60 -5 41 -17 -17 -27 -13 -27 10 0 12 7 27 17 34 19
14 10 35 -15 35 -13 0 -22 -19 -37 -81z"/>
<path d="M5166 5327 c3 -10 9 -15 12 -12 3 3 0 11 -7 18 -10 9 -11 8 -5 -6z"/>
<path d="M5327 5279 c-14 -29 -13 -33 6 -55 11 -13 23 -24 26 -24 3 0 7 25 8
55 2 64 -15 74 -40 24z"/>
<path d="M5147 5293 c-4 -3 -7 -11 -7 -17 0 -6 5 -5 12 2 6 6 9 14 7 17 -3 3
-9 2 -12 -2z"/>
<path d="M3430 5265 c0 -8 5 -15 10 -15 6 0 10 7 10 15 0 8 -4 15 -10 15 -5 0
-10 -7 -10 -15z"/>
<path d="M4536 5248 c-14 -19 -37 -60 -51 -91 -20 -43 -32 -57 -48 -57 -20 0
-20 0 -2 -14 19 -14 19 -15 2 -51 -10 -20 -26 -39 -35 -42 -14 -3 -18 -17 -20
-74 -1 -38 0 -69 3 -69 11 0 45 66 45 87 0 13 9 28 20 35 11 7 20 22 20 33 0
44 12 65 36 65 20 0 47 20 27 20 -4 0 -17 7 -28 15 -19 15 -19 15 3 31 12 8
22 25 22 37 0 12 9 40 21 61 26 49 18 57 -15 14z"/>
<path d="M4715 5270 c-3 -5 -1 -10 4 -10 6 0 11 5 11 10 0 6 -2 10 -4 10 -3 0
-8 -4 -11 -10z"/>
<path d="M5234 5263 c3 -8 6 -19 6 -24 0 -17 18 -9 23 10 3 13 -1 21 -15 24
-14 4 -18 2 -14 -10z"/>
<path d="M5070 5260 c0 -5 5 -10 10 -10 6 0 10 5 10 10 0 6 -4 10 -10 10 -5 0
-10 -4 -10 -10z"/>
<path d="M5137 5214 c-13 -13 -7 -24 14 -24 11 0 19 5 17 12 -5 14 -22 21 -31
12z"/>
<path d="M3437 5203 c-11 -10 -8 -53 3 -53 6 0 10 14 10 30 0 31 -2 35 -13 23z"/>
<path d="M4570 5180 c0 -19 3 -21 12 -12 9 9 9 15 0 24 -9 9 -12 7 -12 -12z"/>
<path d="M4711 5193 c-1 -6 -4 -20 -7 -30 -5 -17 -5 -17 6 0 6 10 9 23 6 30
-3 9 -5 9 -5 0z"/>
<path d="M5236 5175 c-3 -8 -1 -15 4 -15 6 0 10 7 10 15 0 8 -2 15 -4 15 -2 0
-6 -7 -10 -15z"/>
<path d="M4750 5175 c0 -5 5 -17 10 -25 5 -8 10 -10 10 -5 0 6 -5 17 -10 25
-5 8 -10 11 -10 5z"/>
<path d="M3129 5158 c0 -7 -2 -35 -3 -61 -1 -41 0 -46 11 -31 15 21 18 104 3
104 -5 0 -10 -6 -11 -12z"/>
<path d="M5040 5136 c0 -26 24 -53 34 -37 8 13 -11 61 -24 61 -5 0 -10 -11
-10 -24z"/>
<path d="M3445 5117 c-4 -10 -5 -21 -1 -24 10 -10 18 4 13 24 -4 17 -4 17 -12
0z"/>
<path d="M5234 5114 c-4 -10 -9 -22 -11 -26 -2 -5 0 -8 5 -8 10 0 24 41 17 48
-3 3 -8 -4 -11 -14z"/>
<path d="M4605 5100 c-3 -5 -1 -10 4 -10 6 0 11 5 11 10 0 6 -2 10 -4 10 -3 0
-8 -4 -11 -10z"/>
<path d="M4715 5091 c-10 -17 12 -21 25 -6 10 12 10 15 -3 15 -9 0 -18 -4 -22
-9z"/>
<path d="M4767 5065 c-9 -20 -28 -41 -42 -47 -14 -6 -25 -18 -24 -27 0 -10 3
-11 5 -4 6 14 34 6 34 -10 0 -6 -11 -20 -25 -32 -23 -18 -24 -22 -12 -39 14
-19 15 -19 32 7 25 39 64 138 65 165 0 32 -14 27 -33 -13z"/>
<path d="M3295 5080 c-4 -6 -3 -16 3 -22 6 -6 12 -6 17 2 4 6 3 16 -3 22 -6 6
-12 6 -17 -2z"/>
<path d="M3215 5060 c3 -5 13 -10 21 -10 8 0 12 5 9 10 -3 6 -13 10 -21 10 -8
0 -12 -4 -9 -10z"/>
<path d="M4998 5054 c-5 -4 -8 -18 -8 -32 0 -13 -9 -35 -20 -49 -11 -14 -20
-29 -20 -34 0 -17 40 -19 75 -5 34 14 36 18 30 46 -4 19 -3 30 4 30 6 0 11 7
11 15 0 8 -4 15 -9 15 -5 0 -14 -7 -21 -15 -18 -22 -28 -18 -32 11 -2 14 -6
22 -10 18z"/>
<path d="M4797 4994 c-10 -11 -9 -52 2 -59 13 -8 24 32 14 50 -5 9 -12 12 -16
9z"/>
<path d="M5308 4983 c7 -3 16 -2 19 1 4 3 -2 6 -13 5 -11 0 -14 -3 -6 -6z"/>
<path d="M3110 4964 c0 -8 5 -12 10 -9 6 3 10 10 10 16 0 5 -4 9 -10 9 -5 0
-10 -7 -10 -16z"/>
<path d="M4842 4964 c1 -9 9 -19 16 -22 9 -3 13 2 10 14 -1 9 -9 19 -16 22 -9
3 -13 -2 -10 -14z"/>
<path d="M5205 4970 c-3 -5 -1 -10 4 -10 6 0 11 5 11 10 0 6 -2 10 -4 10 -3 0
-8 -4 -11 -10z"/>
<path d="M4480 4940 c0 -5 5 -10 10 -10 6 0 10 5 10 10 0 6 -4 10 -10 10 -5 0
-10 -4 -10 -10z"/>
<path d="M4590 4916 c-13 -35 -13 -34 8 -32 13 1 16 -6 14 -29 -3 -29 -2 -29
13 -10 18 22 13 61 -10 84 -12 12 -16 11 -25 -13z"/>
<path d="M4530 4910 c-6 -11 -8 -20 -6 -20 3 0 10 9 16 20 6 11 8 20 6 20 -3
0 -10 -9 -16 -20z"/>
<path d="M3110 4867 c0 -19 37 -50 49 -42 15 9 14 21 -5 39 -19 20 -44 21 -44
3z"/>
<path d="M4982 4868 c5 -15 28 -23 28 -10 0 5 -7 13 -16 16 -10 4 -14 1 -12
-6z"/>
<path d="M5288 4863 c7 -3 16 -2 19 1 4 3 -2 6 -13 5 -11 0 -14 -3 -6 -6z"/>
<path d="M4425 4830 c-18 -35 -4 -41 19 -8 18 26 20 38 6 38 -5 0 -16 -13 -25
-30z"/>
<path d="M4666 4838 c-31 -50 -60 -132 -48 -136 7 -2 12 -10 12 -18 0 -17 16
-19 26 -3 4 7 6 36 5 66 -1 48 1 54 22 62 20 8 37 29 37 47 0 14 -42 0 -54
-18z"/>
<path d="M5067 4853 c-3 -5 -2 -15 2 -22 7 -10 10 -10 16 -1 4 6 3 16 -3 22
-5 5 -12 6 -15 1z"/>
<path d="M3190 4840 c0 -5 5 -10 11 -10 5 0 7 5 4 10 -3 6 -8 10 -11 10 -2 0
-4 -4 -4 -10z"/>
<path d="M4560 4839 c0 -5 5 -7 10 -4 6 3 10 8 10 11 0 2 -4 4 -10 4 -5 0 -10
-5 -10 -11z"/>
<path d="M5276 4802 c-21 -40 -20 -44 7 -40 14 2 23 11 25 27 6 39 -14 47 -32
13z"/>
<path d="M4596 4801 c-4 -7 -5 -15 -2 -18 9 -9 19 4 14 18 -4 11 -6 11 -12 0z"/>
<path d="M4972 4760 c-15 -50 -15 -77 0 -86 8 -5 9 -2 4 11 -4 12 0 22 14 32
23 16 26 41 7 66 -11 15 -13 13 -25 -23z"/>
<path d="M5192 4769 c-13 -5 -21 -13 -18 -18 7 -10 56 -2 56 10 0 14 -14 17
-38 8z"/>
<path d="M4546 4745 c4 -8 8 -15 10 -15 2 0 4 7 4 15 0 8 -4 15 -10 15 -5 0
-7 -7 -4 -15z"/>
<path d="M5200 4721 c-7 -15 -7 -21 0 -21 12 0 25 28 17 36 -3 3 -10 -4 -17
-15z"/>
<path d="M5265 4708 c-7 -18 -16 -51 -19 -73 l-6 -40 19 41 c21 45 36 104 26
104 -3 0 -12 -15 -20 -32z"/>
<path d="M4446 4715 c-3 -8 -1 -15 4 -15 6 0 10 7 10 15 0 8 -2 15 -4 15 -2 0
-6 -7 -10 -15z"/>
<path d="M4512 4705 c0 -16 2 -22 5 -12 2 9 2 23 0 30 -3 6 -5 -1 -5 -18z"/>
<path d="M4304 4675 c-3 -14 -10 -25 -15 -25 -12 0 -11 -41 1 -60 7 -12 12 -7
25 22 17 42 20 88 5 88 -5 0 -12 -11 -16 -25z"/>
<path d="M4370 4681 c0 -6 5 -13 10 -16 6 -3 10 1 10 9 0 9 -4 16 -10 16 -5 0
-10 -4 -10 -9z"/>
<path d="M4426 4658 c-11 -37 -13 -58 -5 -58 5 0 9 1 9 3 0 1 4 17 9 35 6 20
6 32 0 32 -5 0 -11 -6 -13 -12z"/>
<path d="M5130 4615 c-14 -36 -13 -37 10 -25 21 11 27 35 10 45 -6 3 -15 -6
-20 -20z"/>
<path d="M4987 4623 c-4 -3 -7 -16 -6 -27 0 -19 1 -19 10 3 10 24 8 36 -4 24z"/>
<path d="M4644 4609 c-3 -6 -1 -16 5 -22 8 -8 11 -5 11 11 0 24 -5 28 -16 11z"/>
<path d="M4562 4591 c16 -25 41 -28 36 -3 -2 9 -14 18 -26 20 -21 3 -22 2 -10
-17z"/>
<path d="M4730 4580 c0 -11 5 -20 10 -20 6 0 10 9 10 20 0 11 -4 20 -10 20 -5
0 -10 -9 -10 -20z"/>
<path d="M4936 4575 c-3 -8 -1 -15 4 -15 6 0 10 7 10 15 0 8 -2 15 -4 15 -2 0
-6 -7 -10 -15z"/>
<path d="M4373 4540 c-5 -19 -8 -39 -5 -44 8 -14 23 35 19 59 -2 15 -6 12 -14
-15z"/>
<path d="M4235 4548 c-25 -69 -35 -104 -35 -120 0 -19 1 -19 24 -4 15 10 27
12 31 6 17 -28 55 13 55 59 0 42 -63 91 -75 59z m42 -52 c-7 -17 -47 -22 -47
-7 0 5 7 17 16 26 19 19 40 6 31 -19z"/>
<path d="M4610 4545 c0 -8 4 -15 9 -15 5 0 14 7 21 15 10 13 9 15 -9 15 -12 0
-21 -6 -21 -15z"/>
<path d="M5234 4504 c-8 -32 8 -51 25 -30 13 16 6 56 -9 56 -6 0 -13 -12 -16
-26z"/>
<path d="M4937 4502 c-21 -23 -22 -62 -2 -62 11 0 15 -8 13 -27 -2 -19 2 -28
13 -31 15 -3 17 6 14 59 -4 71 -14 87 -38 61z"/>
<path d="M4604 4487 c-11 -14 -24 -33 -30 -43 -11 -18 -13 -18 -32 7 -24 29
-79 56 -90 44 -4 -4 0 -10 7 -13 21 -7 101 -88 101 -101 0 -28 20 -7 30 32 7
23 18 53 27 65 20 32 10 39 -13 9z"/>
<path d="M4668 4477 c2 -18 -3 -50 -12 -70 -16 -40 -4 -61 15 -26 15 28 17
121 3 126 -6 2 -9 -10 -6 -30z"/>
<path d="M4340 4439 c0 -5 5 -7 10 -4 6 3 10 8 10 11 0 2 -4 4 -10 4 -5 0 -10
-5 -10 -11z"/>
<path d="M4453 4426 c-21 -24 -22 -56 -2 -56 12 0 31 48 27 68 -2 10 -10 6
-25 -12z"/>
<path d="M5075 4440 c-9 -14 3 -27 30 -32 14 -2 20 3 20 17 0 22 -38 34 -50
15z"/>
<path d="M5215 4429 c-4 -6 -4 -13 -1 -16 8 -8 36 5 36 17 0 13 -27 13 -35 -1z"/>
<path d="M4320 4399 c0 -5 5 -7 10 -4 6 3 10 8 10 11 0 2 -4 4 -10 4 -5 0 -10
-5 -10 -11z"/>
<path d="M4242 4368 c-7 -7 -12 -19 -12 -27 0 -12 3 -11 18 2 10 10 27 17 38
17 16 0 17 2 4 10 -20 13 -34 12 -48 -2z"/>
<path d="M5097 4356 c-3 -8 -2 -18 3 -21 13 -8 24 15 12 27 -6 6 -11 4 -15 -6z"/>
<path d="M5020 4326 c0 -9 7 -16 16 -16 9 0 14 5 12 12 -6 18 -28 21 -28 4z"/>
<path d="M5197 4324 c-8 -8 3 -34 14 -34 11 0 12 27 0 34 -4 3 -11 3 -14 0z"/>
<path d="M5091 4306 c-7 -8 -9 -25 -5 -41 8 -31 14 -27 30 20 9 28 9 35 -1 35
-7 0 -18 -6 -24 -14z"/>
<path d="M4272 4294 c1 -9 9 -19 16 -22 9 -3 13 2 10 14 -1 9 -9 19 -16 22 -9
3 -13 -2 -10 -14z"/>
<path d="M4434 4265 c-20 -22 -30 -43 -27 -54 3 -11 0 -29 -7 -41 -15 -27 -8
-35 19 -21 12 7 23 26 27 49 4 20 13 49 20 64 26 51 12 52 -32 3z"/>
<path d="M4196 4253 c-6 -14 -5 -15 5 -6 7 7 10 15 7 18 -3 3 -9 -2 -12 -12z"/>
<path d="M5186 4261 c-8 -12 3 -41 15 -41 12 0 12 37 0 45 -5 3 -12 1 -15 -4z"/>
<path d="M4560 4204 c0 -9 7 -14 17 -12 25 5 28 28 4 28 -12 0 -21 -6 -21 -16z"/>
<path d="M4165 4195 c-5 -11 -10 -24 -13 -30 -3 -5 3 -3 13 7 9 9 15 22 12 30
-3 9 -7 7 -12 -7z"/>
<path d="M5186 4142 c-3 -3 -6 -14 -6 -24 0 -10 -4 -18 -8 -18 -11 0 -14 -148
-3 -154 5 -3 16 25 26 62 9 37 21 77 26 90 5 13 9 27 9 31 0 10 -37 21 -44 13z"/>
<path d="M4370 4105 c-7 -8 -21 -15 -31 -15 -11 0 -19 -5 -19 -10 0 -16 33
-26 38 -11 2 7 15 16 28 21 13 5 24 14 24 20 0 15 -26 12 -40 -5z"/>
<path d="M4300 4050 c0 -5 9 -14 20 -20 28 -15 25 -28 -7 -32 -14 -2 -28 -9
-31 -15 -6 -20 33 -15 59 6 l24 19 -24 26 c-25 27 -41 33 -41 16z"/>
<path d="M4502 4023 c-7 -21 -15 -46 -19 -55 -3 -10 0 -18 6 -18 14 0 41 60
41 90 0 32 -14 23 -28 -17z"/>
<path d="M5267 4025 c-4 -8 -2 -17 3 -20 6 -4 10 3 10 14 0 25 -6 27 -13 6z"/>
<path d="M4396 3995 c-18 -18 -21 -35 -6 -35 11 0 34 39 27 46 -3 3 -12 -2
-21 -11z"/>
<path d="M4302 3916 c1 -10 8 -17 13 -17 15 1 12 24 -3 29 -9 3 -13 -2 -10
-12z"/>
<path d="M5272 3919 c2 -7 10 -15 17 -17 8 -3 12 1 9 9 -2 7 -10 15 -17 17 -8
3 -12 -1 -9 -9z"/>
<path d="M4448 3894 c-5 -4 -8 -19 -8 -33 1 -23 2 -24 11 -8 11 19 9 53 -3 41z"/>
<path d="M5148 3871 c-13 -15 -14 -27 -6 -67 5 -27 12 -59 14 -71 2 -13 9 -23
15 -23 6 0 8 11 4 28 -3 16 -1 50 5 77 9 38 8 51 -2 62 -11 11 -16 10 -30 -6z"/>
<path d="M5240 3881 c0 -11 26 -22 34 -14 3 3 3 10 0 14 -7 12 -34 11 -34 0z"/>
<path d="M4260 3860 c0 -5 5 -10 11 -10 5 0 7 5 4 10 -3 6 -8 10 -11 10 -2 0
-4 -4 -4 -10z"/>
<path d="M5031 3797 c-6 -16 -11 -38 -11 -50 1 -22 1 -22 12 -2 6 11 17 25 24
31 11 9 11 14 0 30 -14 18 -15 18 -25 -9z"/>
<path d="M4219 3764 c-12 -14 -11 -16 5 -13 11 2 21 10 24 17 5 17 -13 15 -29
-4z"/>
<path d="M5121 3669 c6 -12 9 -38 5 -58 -6 -37 1 -81 13 -81 15 0 42 68 40
100 -3 44 -15 60 -46 60 -21 0 -22 -2 -12 -21z"/>
<path d="M4320 3614 c0 -8 5 -12 10 -9 6 3 10 10 10 16 0 5 -4 9 -10 9 -5 0
-10 -7 -10 -16z"/>
<path d="M5015 3620 c3 -5 8 -10 11 -10 2 0 4 5 4 10 0 6 -5 10 -11 10 -5 0
-7 -4 -4 -10z"/>
<path d="M5267 3603 c-4 -3 -7 -11 -7 -17 0 -6 5 -5 12 2 6 6 9 14 7 17 -3 3
-9 2 -12 -2z"/>
<path d="M5028 3576 c-6 -14 -7 -33 -4 -43 7 -17 9 -16 27 6 10 13 19 32 19
42 0 27 -28 23 -42 -5z"/>
<path d="M4955 3500 c3 -5 8 -10 11 -10 2 0 4 5 4 10 0 6 -5 10 -11 10 -5 0
-7 -4 -4 -10z"/>
<path d="M5131 3494 c0 -11 3 -14 6 -6 3 7 2 16 -1 19 -3 4 -6 -2 -5 -13z"/>
<path d="M5112 3298 c-3 -92 7 -195 18 -177 9 14 11 177 3 222 -9 49 -19 28
-21 -45z"/>
<path d="M5005 3141 c-6 -11 9 -23 19 -14 9 9 7 23 -3 23 -6 0 -12 -4 -16 -9z"/>
<path d="M5131 2924 c0 -11 3 -14 6 -6 3 7 2 16 -1 19 -3 4 -6 -2 -5 -13z"/>
<path d="M5206 2675 c4 -8 8 -15 10 -15 2 0 4 7 4 15 0 8 -4 15 -10 15 -5 0
-7 -7 -4 -15z"/>
<path d="M5554 2443 l-28 -37 34 20 c19 11 36 28 38 37 6 28 -14 19 -44 -20z"/>
</g>
</svg>
